# xmcd
#
# Track frame offsets: 
#        150
#        16030
#        32992
#        68815
#        93990
#        128792
#
# Disc length: 2173 seconds
#
# Revision: 3
# Processed by: cddbd v1.5.1PL0 Copyright (c) Steve Scherf et al.
# Submitted via: ExactAudioCopy v0.95a4
#
DISCID=44087b06
DTITLE=Krystal K - Let's Get It Right
DYEAR=2004
DGENRE=Dance
TTITLE0=Let's Get It Right (Radio Cut)
TTITLE1=Let's Get It Right (Electro Radio Version)
TTITLE2=Let's Get It Right (Club Version)
TTITLE3=Let's Get It Right (The Guitar Version)
TTITLE4=Let's Get It Right (Altitude Remix)
TTITLE5=Let's Get It Right (Dub Version)
EXTD=
EXTT0=
EXTT1=
EXTT2=
EXTT3=
EXTT4=
EXTT5=
PLAYORDER=
